<mxfile host="Electron" modified="2025-02-19T10:30:13.041Z" agent="Mozilla/5.0 (Windows NT 10.0; Win64; x64) AppleWebKit/537.36 (KHTML, like Gecko) draw.io/21.6.8 Chrome/114.0.5735.289 Electron/25.5.0 Safari/537.36" etag="3yTTm6YZSv8kwTItYkf2" version="21.6.8" type="device">
  <diagram id="R2lEEEUBdFMjLlhIrx00" name="Page-1">
    <mxGraphModel dx="2309" dy="1103" grid="1" gridSize="10" guides="1" tooltips="1" connect="1" arrows="1" fold="1" page="1" pageScale="1" pageWidth="1169" pageHeight="827" math="0" shadow="0" extFonts="Permanent Marker^https://fonts.googleapis.com/css?family=Permanent+Marker">
      <root>
        <mxCell id="0" />
        <mxCell id="1" parent="0" />
        <mxCell id="2PgLV0RMzEGEEoBKS3YH-1" value="UpiID" style="ellipse;whiteSpace=wrap;html=1;fontFamily=Times New Roman;fontSize=16;" vertex="1" parent="1">
          <mxGeometry x="120" y="120" width="120" height="80" as="geometry" />
        </mxCell>
        <mxCell id="2PgLV0RMzEGEEoBKS3YH-3" value="UserName" style="ellipse;whiteSpace=wrap;html=1;fontFamily=Times New Roman;fontSize=16;" vertex="1" parent="1">
          <mxGeometry x="260" y="70" width="120" height="80" as="geometry" />
        </mxCell>
        <mxCell id="2PgLV0RMzEGEEoBKS3YH-5" value="Email" style="ellipse;whiteSpace=wrap;html=1;fontFamily=Times New Roman;fontSize=16;" vertex="1" parent="1">
          <mxGeometry x="80" y="240" width="120" height="80" as="geometry" />
        </mxCell>
        <mxCell id="2PgLV0RMzEGEEoBKS3YH-8" value="Password" style="ellipse;whiteSpace=wrap;html=1;fontFamily=Times New Roman;fontSize=16;" vertex="1" parent="1">
          <mxGeometry x="440" y="160" width="120" height="80" as="geometry" />
        </mxCell>
        <mxCell id="2PgLV0RMzEGEEoBKS3YH-9" value="Email" style="ellipse;whiteSpace=wrap;html=1;fontFamily=Times New Roman;fontSize=16;" vertex="1" parent="1">
          <mxGeometry x="400" y="60" width="120" height="80" as="geometry" />
        </mxCell>
        <mxCell id="2PgLV0RMzEGEEoBKS3YH-10" value="MobileNo." style="ellipse;whiteSpace=wrap;html=1;fontFamily=Times New Roman;fontSize=16;" vertex="1" parent="1">
          <mxGeometry x="530" y="230" width="120" height="80" as="geometry" />
        </mxCell>
        <mxCell id="2PgLV0RMzEGEEoBKS3YH-11" value="DOB" style="ellipse;whiteSpace=wrap;html=1;fontFamily=Times New Roman;fontSize=16;" vertex="1" parent="1">
          <mxGeometry x="80" y="360" width="120" height="80" as="geometry" />
        </mxCell>
        <mxCell id="2PgLV0RMzEGEEoBKS3YH-12" value="Address" style="ellipse;whiteSpace=wrap;html=1;fontFamily=Times New Roman;fontSize=16;" vertex="1" parent="1">
          <mxGeometry x="80" y="460" width="120" height="80" as="geometry" />
        </mxCell>
        <mxCell id="2PgLV0RMzEGEEoBKS3YH-15" value="Role" style="ellipse;whiteSpace=wrap;html=1;fontFamily=Times New Roman;fontSize=16;" vertex="1" parent="1">
          <mxGeometry x="440" y="440" width="120" height="80" as="geometry" />
        </mxCell>
        <mxCell id="2PgLV0RMzEGEEoBKS3YH-16" value="ProfilePic" style="ellipse;whiteSpace=wrap;html=1;fontFamily=Times New Roman;fontSize=16;" vertex="1" parent="1">
          <mxGeometry x="-40" y="310" width="120" height="80" as="geometry" />
        </mxCell>
        <mxCell id="2PgLV0RMzEGEEoBKS3YH-17" value="Created At" style="ellipse;whiteSpace=wrap;html=1;fontFamily=Times New Roman;fontSize=16;" vertex="1" parent="1">
          <mxGeometry x="320" y="480" width="120" height="80" as="geometry" />
        </mxCell>
        <mxCell id="2PgLV0RMzEGEEoBKS3YH-18" value="FullName" style="ellipse;whiteSpace=wrap;html=1;fontFamily=Times New Roman;fontSize=16;" vertex="1" parent="1">
          <mxGeometry x="200" y="520" width="120" height="80" as="geometry" />
        </mxCell>
        <mxCell id="2PgLV0RMzEGEEoBKS3YH-20" style="edgeStyle=orthogonalEdgeStyle;rounded=0;orthogonalLoop=1;jettySize=auto;html=1;exitX=0.5;exitY=1;exitDx=0;exitDy=0;fontFamily=Times New Roman;fontSize=16;" edge="1" parent="1" source="2PgLV0RMzEGEEoBKS3YH-15" target="2PgLV0RMzEGEEoBKS3YH-15">
          <mxGeometry relative="1" as="geometry" />
        </mxCell>
        <mxCell id="2PgLV0RMzEGEEoBKS3YH-21" value="User" style="rounded=0;whiteSpace=wrap;html=1;fontFamily=Times New Roman;fontSize=16;" vertex="1" parent="1">
          <mxGeometry x="270" y="290" width="120" height="60" as="geometry" />
        </mxCell>
        <mxCell id="2PgLV0RMzEGEEoBKS3YH-22" value="" style="endArrow=none;html=1;rounded=0;fontFamily=Times New Roman;fontSize=16;" edge="1" parent="1">
          <mxGeometry width="50" height="50" relative="1" as="geometry">
            <mxPoint x="380" y="480" as="sourcePoint" />
            <mxPoint x="345" y="350" as="targetPoint" />
          </mxGeometry>
        </mxCell>
        <mxCell id="2PgLV0RMzEGEEoBKS3YH-23" value="" style="endArrow=none;html=1;rounded=0;exitX=0.5;exitY=0;exitDx=0;exitDy=0;entryX=1;entryY=1;entryDx=0;entryDy=0;fontFamily=Times New Roman;fontSize=16;" edge="1" parent="1" source="2PgLV0RMzEGEEoBKS3YH-15" target="2PgLV0RMzEGEEoBKS3YH-21">
          <mxGeometry width="50" height="50" relative="1" as="geometry">
            <mxPoint x="600" y="430" as="sourcePoint" />
            <mxPoint x="650" y="380" as="targetPoint" />
          </mxGeometry>
        </mxCell>
        <mxCell id="2PgLV0RMzEGEEoBKS3YH-24" value="" style="endArrow=none;html=1;rounded=0;entryX=0.75;entryY=0;entryDx=0;entryDy=0;fontFamily=Times New Roman;fontSize=16;" edge="1" parent="1" target="2PgLV0RMzEGEEoBKS3YH-21">
          <mxGeometry width="50" height="50" relative="1" as="geometry">
            <mxPoint x="310" y="150" as="sourcePoint" />
            <mxPoint x="580" y="290" as="targetPoint" />
          </mxGeometry>
        </mxCell>
        <mxCell id="2PgLV0RMzEGEEoBKS3YH-25" value="" style="endArrow=none;html=1;rounded=0;entryX=0.947;entryY=0.796;entryDx=0;entryDy=0;entryPerimeter=0;exitX=0.597;exitY=-0.017;exitDx=0;exitDy=0;exitPerimeter=0;fontFamily=Times New Roman;fontSize=16;" edge="1" parent="1" source="2PgLV0RMzEGEEoBKS3YH-21" target="2PgLV0RMzEGEEoBKS3YH-1">
          <mxGeometry width="50" height="50" relative="1" as="geometry">
            <mxPoint x="330" y="280" as="sourcePoint" />
            <mxPoint x="250" y="175" as="targetPoint" />
          </mxGeometry>
        </mxCell>
        <mxCell id="2PgLV0RMzEGEEoBKS3YH-26" value="" style="endArrow=none;html=1;rounded=0;exitX=1;exitY=0.5;exitDx=0;exitDy=0;entryX=0.022;entryY=0.638;entryDx=0;entryDy=0;entryPerimeter=0;fontFamily=Times New Roman;fontSize=16;" edge="1" parent="1" source="2PgLV0RMzEGEEoBKS3YH-21" target="2PgLV0RMzEGEEoBKS3YH-10">
          <mxGeometry width="50" height="50" relative="1" as="geometry">
            <mxPoint x="530" y="290" as="sourcePoint" />
            <mxPoint x="530" y="280" as="targetPoint" />
          </mxGeometry>
        </mxCell>
        <mxCell id="2PgLV0RMzEGEEoBKS3YH-27" value="" style="endArrow=none;html=1;rounded=0;exitX=1;exitY=0.25;exitDx=0;exitDy=0;entryX=0.336;entryY=0.979;entryDx=0;entryDy=0;entryPerimeter=0;fontFamily=Times New Roman;fontSize=16;" edge="1" parent="1" source="2PgLV0RMzEGEEoBKS3YH-21" target="2PgLV0RMzEGEEoBKS3YH-8">
          <mxGeometry width="50" height="50" relative="1" as="geometry">
            <mxPoint x="430" y="290" as="sourcePoint" />
            <mxPoint x="480" y="240" as="targetPoint" />
          </mxGeometry>
        </mxCell>
        <mxCell id="2PgLV0RMzEGEEoBKS3YH-28" value="" style="endArrow=none;html=1;rounded=0;exitX=0.931;exitY=-0.039;exitDx=0;exitDy=0;exitPerimeter=0;entryX=0.381;entryY=1.013;entryDx=0;entryDy=0;entryPerimeter=0;fontFamily=Times New Roman;fontSize=16;" edge="1" parent="1" source="2PgLV0RMzEGEEoBKS3YH-21" target="2PgLV0RMzEGEEoBKS3YH-9">
          <mxGeometry width="50" height="50" relative="1" as="geometry">
            <mxPoint x="410" y="170" as="sourcePoint" />
            <mxPoint x="460" y="120" as="targetPoint" />
          </mxGeometry>
        </mxCell>
        <mxCell id="2PgLV0RMzEGEEoBKS3YH-29" value="" style="endArrow=none;html=1;rounded=0;exitX=0.992;exitY=0.296;exitDx=0;exitDy=0;exitPerimeter=0;fontFamily=Times New Roman;fontSize=16;" edge="1" parent="1" source="2PgLV0RMzEGEEoBKS3YH-11">
          <mxGeometry width="50" height="50" relative="1" as="geometry">
            <mxPoint x="130" y="460" as="sourcePoint" />
            <mxPoint x="280" y="350" as="targetPoint" />
          </mxGeometry>
        </mxCell>
        <mxCell id="2PgLV0RMzEGEEoBKS3YH-30" value="" style="endArrow=none;html=1;rounded=0;exitX=1;exitY=0.5;exitDx=0;exitDy=0;entryX=0;entryY=0.25;entryDx=0;entryDy=0;fontFamily=Times New Roman;fontSize=16;" edge="1" parent="1" source="2PgLV0RMzEGEEoBKS3YH-5" target="2PgLV0RMzEGEEoBKS3YH-21">
          <mxGeometry width="50" height="50" relative="1" as="geometry">
            <mxPoint x="130" y="390" as="sourcePoint" />
            <mxPoint x="270" y="300" as="targetPoint" />
          </mxGeometry>
        </mxCell>
        <mxCell id="2PgLV0RMzEGEEoBKS3YH-31" value="" style="endArrow=none;html=1;rounded=0;entryX=0;entryY=0.75;entryDx=0;entryDy=0;exitX=1;exitY=0.5;exitDx=0;exitDy=0;fontFamily=Times New Roman;fontSize=16;" edge="1" parent="1" source="2PgLV0RMzEGEEoBKS3YH-16" target="2PgLV0RMzEGEEoBKS3YH-21">
          <mxGeometry width="50" height="50" relative="1" as="geometry">
            <mxPoint x="90" y="350" as="sourcePoint" />
            <mxPoint x="270" y="340" as="targetPoint" />
          </mxGeometry>
        </mxCell>
        <mxCell id="2PgLV0RMzEGEEoBKS3YH-33" value="" style="endArrow=none;html=1;rounded=0;exitX=0.672;exitY=-0.037;exitDx=0;exitDy=0;exitPerimeter=0;entryX=0.389;entryY=1.094;entryDx=0;entryDy=0;entryPerimeter=0;fontFamily=Times New Roman;fontSize=16;" edge="1" parent="1" source="2PgLV0RMzEGEEoBKS3YH-18" target="2PgLV0RMzEGEEoBKS3YH-21">
          <mxGeometry width="50" height="50" relative="1" as="geometry">
            <mxPoint x="270" y="400" as="sourcePoint" />
            <mxPoint x="320" y="380" as="targetPoint" />
          </mxGeometry>
        </mxCell>
        <mxCell id="2PgLV0RMzEGEEoBKS3YH-34" value="" style="endArrow=none;html=1;rounded=0;exitX=0.95;exitY=0.196;exitDx=0;exitDy=0;exitPerimeter=0;fontFamily=Times New Roman;fontSize=16;" edge="1" parent="1" source="2PgLV0RMzEGEEoBKS3YH-12">
          <mxGeometry width="50" height="50" relative="1" as="geometry">
            <mxPoint x="510" y="500" as="sourcePoint" />
            <mxPoint x="290" y="350" as="targetPoint" />
          </mxGeometry>
        </mxCell>
      </root>
    </mxGraphModel>
  </diagram>
</mxfile>
